<mxfile host="app.diagrams.net" modified="2023-04-07T07:51:10.219Z" agent="Mozilla/5.0 (X11; Ubuntu; Linux x86_64; rv:109.0) Gecko/20100101 Firefox/111.0" etag="hlP4mWJOiwADRTBBSHal" version="21.1.5" type="device">
  <diagram name="Page-1" id="9SPY-kYg5uLg7FScrMz_">
    <mxGraphModel dx="720" dy="483" grid="1" gridSize="10" guides="1" tooltips="1" connect="1" arrows="1" fold="1" page="1" pageScale="1" pageWidth="850" pageHeight="1100" math="0" shadow="0">
      <root>
        <mxCell id="0" />
        <mxCell id="1" parent="0" />
      </root>
    </mxGraphModel>
  </diagram>
</mxfile>
